<?xml version="1.0" encoding="utf-8"?>
<!-- Generator: Adobe Illustrator 24.1.1, SVG Export Plug-In . SVG Version: 6.00 Build 0)  -->
<svg version="1.1" id="Layer_1" xmlns="http://www.w3.org/2000/svg" xmlns:xlink="http://www.w3.org/1999/xlink" x="0px" y="0px"
	 viewBox="0 0 390 170" style="enable-background:new 0 0 390 170;" xml:space="preserve">
<style type="text/css">
	.st0{clip-path:url(#SVGID_2_);}
	.st1{stroke:#000000;stroke-width:2;stroke-miterlimit:10;}
</style>
<g>
	<g>
		<defs>
			<rect id="SVGID_1_" x="34.3" y="39.8" width="138.6" height="109.9"/>
		</defs>
		<clipPath id="SVGID_2_">
			<use xlink:href="#SVGID_1_"  style="overflow:visible;"/>
		</clipPath>
		<g class="st0">
			<path d="M151.1,72.2l21.7,13.1V69.1H152l-48.4-29.3L55.2,69.1H34.4v16.3l19.9-12.1v75.9h3V71.5l46.3-28L146,69.2H75.4v80.1h18.3
				v-33.4h19.8v33.4h39.7V84.4h-3v61.7h-33.6v-33.4h-26v33.4H78.4V72.2H151.1z M169.8,72.2v7.7l-12.7-7.7H169.8z M37.4,79.9v-7.7H50
				L37.4,79.9z"/>
		</g>
	</g>
</g>
<g>
	<g transform="translate(158.549994, 224.510258)">
		<g>
			<path class="st1" d="M10-93.9c3.2,2.7,7.4,4,12.2,4c7.3,0,13.2-3.8,13.2-10.7c0-5.4-4-8.3-8.7-11.1l-4-2.4
				c-4.2-2.5-7.1-4.5-7.1-9c0-4.2,3.2-6.7,7.9-6.7c3.9,0,6.7,1.7,9,5.5l1.1-2.7c-3.1-2.7-6.3-3.7-10.9-3.7c-8.1,0-11.9,5.2-11.9,9.4
				c0,6,4,9.2,8.7,11.8l4.9,2.8c3.6,2,6.3,4.6,6.3,8.7c0,4.6-3.9,7.2-8.6,7.2c-4.8,0-8.6-2.2-11.4-6L10-93.9z"/>
		</g>
	</g>
</g>
<g>
	<g transform="translate(180.972596, 224.510258)">
		<g>
			<path class="st1" d="M19.6-115.9h-3.5v0.8h3.5v16.7c0,5.4,1.6,8.4,7.4,8.4c3,0,5.5-1,7-2.3l-0.2-0.4c-1.2,0.8-3.1,1.2-5,1.2
				c-3.5,0-4.6-1.8-4.6-5.5v-18.1H33v-0.8h-8.8v-7.1h-4.5v7.1H19.6z"/>
		</g>
	</g>
</g>
<g>
	<g transform="translate(195.468872, 224.510258)">
		<g>
			<path class="st1" d="M24.3-111.8c1.5-1.9,4.2-3.4,7.3-3.4c5,0,6.4,3.3,6.4,8.8v3.4c-1.4-0.7-3.4-1.3-6.3-1.3
				c-5.5,0-9.6,2-9.6,7.2c0,4.4,3.2,7.1,8,7.1c5,0,7.1-2.8,7.9-5.4c0.1,1.7,0.1,3.2,0.3,5h4.2v-17.3c0-5.8-2.6-8.7-8.5-8.7
				c-4.5,0-8.1,1.8-10.1,4.2L24.3-111.8z M32.1-91.3c-3.7,0-5.3-2.4-5.3-6c0-4.8,3.3-6.1,6-6.1c2.2,0,4,0.5,5.1,1.2v5.2
				C37.5-94.5,35.3-91.3,32.1-91.3z"/>
		</g>
	</g>
</g>
<g>
	<g transform="translate(215.051555, 224.510258)">
		<g>
			<path class="st1" d="M34.7-115.9h-5.1l12.3,25.5l-1,2.7c-1,2.5-2.5,5.5-5.7,5.5c-1,0-1.7-0.2-2.5-0.6v3.6
				c0.4,0.1,0.8,0.1,1.4,0.1c4.4,0,6.4-5.7,7.8-9.2l6.1-15.5c2.8-7.1,5.1-12.1,5.1-12.1h-2.8c-0.3,3.6-1.9,9-3.5,13.3L44-95.4
				L34.7-115.9z"/>
		</g>
	</g>
</g>
<g>
	<g transform="translate(235.863459, 224.510258)">
		<g>
			<path class="st1" d="M38-90.5h4.5v-25.4H38V-90.5z M37.5-125.5c0,1.9,1.4,2.9,2.9,2.9c1.4,0,2.8-1.1,2.8-2.9
				c0-1.6-1.4-2.7-2.8-2.7C38.8-128.2,37.5-127.1,37.5-125.5z"/>
		</g>
	</g>
</g>
<g>
	<g transform="translate(246.078672, 224.510258)">
		<g>
			<path class="st1" d="M40.9-90.5h4.5V-111c1.9-2.2,4.5-3.3,7.1-3.3c4.5,0,6.8,2.2,6.8,8.1v15.7h4.5v-16.2c0-6.4-2.7-9.7-8.3-9.7
				c-3.9,0-7.6,1.7-10.1,4.5c0,0-0.1-2.4-0.3-4h-4.2V-90.5z"/>
		</g>
	</g>
</g>
<g>
	<g transform="translate(269.009918, 224.510258)">
		<g>
			<path class="st1" d="M49-130.4c1.1,0.8,2.3,2.4,2.3,4c0,2.5-0.7,4.5-3.1,6.7l0.4,0.5c1.2-1,5.9-5.3,5.9-9.2c0-1.8-1.4-3.3-2-4
				L49-130.4z"/>
		</g>
	</g>
</g>
<g>
	<g transform="translate(279.140353, 224.510258)">
		<g>
			<path class="st1" d="M53-90.5h4.8V-130H53V-90.5z"/>
		</g>
	</g>
</g>
<g>
	<g transform="translate(290.372843, 224.510258)">
		<g>
			<path class="st1" d="M56-115.9h-3.5v0.8H56v16.7c0,5.4,1.6,8.4,7.4,8.4c3,0,5.5-1,7-2.3l-0.2-0.4c-1.2,0.8-3.1,1.2-5,1.2
				c-3.5,0-4.6-1.8-4.6-5.5v-18.1h8.8v-0.8h-8.8v-7.1H56V-115.9z"/>
		</g>
	</g>
</g>
</svg>
